<svg width="28" height="28" viewBox="0 0 28 28" fill="none" xmlns="http://www.w3.org/2000/svg">
<g id="_Linkedin" clip-path="url(#clip0_165_526)">
<path id="Vector" d="M0.5 4.57669C0.5 3.70795 0.804063 2.99125 1.41216 2.4266C2.02026 1.86192 2.81082 1.57959 3.78378 1.57959C4.73939 1.57959 5.51254 1.85756 6.10328 2.41357C6.71138 2.98693 7.01544 3.73401 7.01544 4.65488C7.01544 5.48886 6.72009 6.18382 6.12934 6.73982C5.52124 7.31318 4.72201 7.59986 3.73166 7.59986H3.7056C2.74999 7.59986 1.97684 7.31318 1.3861 6.73982C0.795358 6.16646 0.5 5.44541 0.5 4.57669ZM0.838803 27.3807V9.97148H6.62452V27.3807H0.838803ZM9.83012 27.3807H15.6158V17.6597C15.6158 17.0516 15.6853 16.5825 15.8243 16.2524C16.0676 15.6616 16.4368 15.1621 16.9319 14.7538C17.4271 14.3455 18.0483 14.1414 18.7954 14.1414C20.7413 14.1414 21.7143 15.4531 21.7143 18.0767V27.3807H27.5V17.3991C27.5 14.8276 26.8919 12.8774 25.6757 11.5482C24.4595 10.2191 22.8523 9.55449 20.8542 9.55449C18.6129 9.55449 16.8668 10.5188 15.6158 12.4473V12.4995H15.5898L15.6158 12.4473V9.97148H9.83012C9.86486 10.5275 9.88224 12.2562 9.88224 15.1578C9.88224 18.0593 9.86486 22.1336 9.83012 27.3807Z" fill="white"/>
</g>
<defs>
<clipPath id="clip0_165_526">
<rect width="27" height="27" fill="white" transform="translate(0.5 0.974609)"/>
</clipPath>
</defs>
</svg>
