<svg width="28" height="28" viewBox="0 0 28 28" fill="none" xmlns="http://www.w3.org/2000/svg">
<g id="_Twitter">
<path id="Vector" d="M24.1892 9.05266C24.1996 9.29027 24.1996 9.51707 24.1996 9.75467C24.21 16.9583 18.9175 25.2743 9.23886 25.2743C6.38423 25.2743 3.58169 24.4211 1.17505 22.8227C1.59178 22.8767 2.00852 22.8983 2.42525 22.8983C4.79022 22.8983 7.09268 22.0775 8.95756 20.5547C6.7072 20.5115 4.72771 18.9887 4.0401 16.7639C4.83189 16.9259 5.64453 16.8935 6.41548 16.6667C3.96717 16.1699 2.20647 13.9343 2.19605 11.3315C2.19605 11.3099 2.19605 11.2883 2.19605 11.2667C2.92533 11.6879 3.74838 11.9255 4.58185 11.9471C2.27939 10.3487 1.56053 7.16266 2.95659 4.66785C5.63411 8.08066 9.57225 10.1435 13.8021 10.3703C13.3749 8.48026 13.9584 6.49306 15.3232 5.15385C17.4381 3.09105 20.772 3.19905 22.7723 5.39145C23.9496 5.15385 25.0852 4.70025 26.1166 4.06305C25.7207 5.32665 24.8977 6.39586 23.8037 7.07626C24.8456 6.94666 25.8666 6.65506 26.825 6.22306C26.1166 7.32466 25.2206 8.27506 24.1892 9.05266Z" fill="white"/>
</g>
</svg>
