<svg width="28" height="28" viewBox="0 0 28 28" fill="none" xmlns="http://www.w3.org/2000/svg">
<g id="_YouTube">
<g clip-path="url(#clip0_165_528)">
<g id="Group">
<path id="Vector" d="M26.9439 7.98288C26.6325 6.82638 25.7206 5.91452 24.5641 5.60315C22.4513 5.0249 13.9999 5.0249 13.9999 5.0249C13.9999 5.0249 5.54858 5.0249 3.43574 5.58091C2.30147 5.89228 1.36738 6.82638 1.05601 7.98288C0.5 10.0957 0.5 14.4771 0.5 14.4771C0.5 14.4771 0.5 18.8807 1.05601 20.9713C1.36738 22.1278 2.27923 23.0397 3.43574 23.351C5.57082 23.9293 13.9999 23.9293 13.9999 23.9293C13.9999 23.9293 22.4513 23.9293 24.5641 23.3733C25.7206 23.0619 26.6325 22.15 26.9439 20.9935C27.4999 18.8807 27.4999 14.4993 27.4999 14.4993C27.4999 14.4993 27.5221 10.0957 26.9439 7.98288Z" fill="white"/>
<path id="Vector_2" d="M11.3088 18.5242L18.3368 14.4765L11.3088 10.4287V18.5242Z" fill="#111111"/>
</g>
</g>
</g>
<defs>
<clipPath id="clip0_165_528">
<rect x="0.5" y="0.974609" width="27" height="27" rx="6.75" fill="white"/>
</clipPath>
</defs>
</svg>
